<svg width="24" height="24" viewBox="0 0 24 24" fill="none" xmlns="http://www.w3.org/2000/svg">
<path d="M9.0666 19.9199C9.48081 19.9199 9.8166 19.5842 9.8166 19.1699C9.8166 18.7557 9.48081 18.4199 9.0666 18.4199V19.9199ZM4.26718 15.9701L3.51718 15.9701L4.26718 15.9701ZM5.0166 2.39987C5.01658 1.98566 4.68078 1.64988 4.26657 1.6499C3.85236 1.64992 3.51658 1.98572 3.5166 2.39993L5.0166 2.39987ZM9.0666 8.06677C9.48081 8.06677 9.8166 7.73099 9.8166 7.31677C9.8166 6.90256 9.48081 6.56677 9.0666 6.56677V8.06677ZM18.6666 9.86657L18.6666 9.11657L18.6666 9.86657ZM13.8666 9.86655L13.8666 10.6165H13.8666L13.8666 9.86655ZM19.7334 2.3999L20.4834 2.39992C20.4834 2.201 20.4044 2.01023 20.2638 1.86958C20.1231 1.72892 19.9323 1.6499 19.7334 1.6499V2.3999ZM19.7333 8.79993L20.4833 8.79995V8.79994L19.7333 8.79993ZM12.7999 8.79987L12.0499 8.79987V8.79987L12.7999 8.79987ZM12.8 4.53324L12.3017 3.97268C12.1416 4.11501 12.05 4.31901 12.05 4.53323L12.8 4.53324ZM15.1999 2.3999V1.6499C15.0162 1.6499 14.8389 1.71731 14.7017 1.83935L15.1999 2.3999ZM18.6666 21.5999L18.6666 20.8499L18.6666 21.5999ZM13.8666 21.5999L13.8666 22.3499L13.8666 21.5999ZM19.7334 14.1332L20.4834 14.1333C20.4834 13.9343 20.4044 13.7436 20.2638 13.6029C20.1231 13.4623 19.9323 13.3832 19.7334 13.3832V14.1332ZM19.7333 20.5333L20.4833 20.5333V20.5333L19.7333 20.5333ZM12.7999 20.5332L12.0499 20.5332V20.5332L12.7999 20.5332ZM12.8 16.2666L12.3017 15.706C12.1416 15.8483 12.05 16.0523 12.05 16.2666L12.8 16.2666ZM15.1999 14.1332V13.3832C15.0162 13.3832 14.8389 13.4506 14.7017 13.5727L15.1999 14.1332ZM9.0666 18.4199H7.46718V19.9199H9.0666V18.4199ZM5.01718 15.97L5.01681 7.31674L3.51681 7.3168L3.51718 15.9701L5.01718 15.97ZM5.01681 7.31674L5.0166 2.39987L3.5166 2.39993L3.51681 7.3168L5.01681 7.31674ZM9.0666 6.56677H4.26681V8.06677H9.0666V6.56677ZM7.46718 18.4199C6.11413 18.4199 5.01724 17.3231 5.01718 15.97L3.51718 15.9701C3.51728 18.1516 5.28572 19.9199 7.46718 19.9199V18.4199ZM18.6666 9.11657L13.8666 9.11655L13.8666 10.6165L18.6666 10.6166L18.6666 9.11657ZM18.9834 2.39989L18.9833 8.79991L20.4833 8.79994L20.4834 2.39992L18.9834 2.39989ZM18.6666 10.6166C19.6699 10.6166 20.4833 9.80325 20.4833 8.79995L18.9833 8.79991C18.9833 8.9748 18.8415 9.11657 18.6666 9.11657L18.6666 10.6166ZM12.0499 8.79987C12.0499 9.80319 12.8633 10.6165 13.8666 10.6165L13.8666 9.11655C13.6917 9.11655 13.5499 8.97477 13.5499 8.79988L12.0499 8.79987ZM13.5499 8.79988L13.55 4.53324L12.05 4.53323L12.0499 8.79987L13.5499 8.79988ZM15.1999 3.1499H19.7334V1.6499H15.1999V3.1499ZM14.7017 1.83935L12.3017 3.97268L13.2982 5.09379L15.6982 2.96046L14.7017 1.83935ZM18.6666 20.8499L13.8666 20.8499L13.8666 22.3499L18.6666 22.3499L18.6666 20.8499ZM18.9834 14.1332L18.9833 20.5332L20.4833 20.5333L20.4834 14.1333L18.9834 14.1332ZM18.6666 22.3499C19.6699 22.3499 20.4833 21.5366 20.4833 20.5333L18.9833 20.5332C18.9833 20.7081 18.8415 20.8499 18.6666 20.8499L18.6666 22.3499ZM12.0499 20.5332C12.0499 21.5365 12.8633 22.3499 13.8666 22.3499L13.8666 20.8499C13.6917 20.8499 13.5499 20.7081 13.5499 20.5332L12.0499 20.5332ZM13.5499 20.5332L13.55 16.2666L12.05 16.2666L12.0499 20.5332L13.5499 20.5332ZM15.1999 14.8832H19.7334V13.3832H15.1999V14.8832ZM14.7017 13.5727L12.3017 15.706L13.2982 16.8271L15.6982 14.6938L14.7017 13.5727Z" fill="black"/>
</svg>
