<svg width="24" height="24" viewBox="0 0 24 24" fill="none" xmlns="http://www.w3.org/2000/svg">
<g clip-path="url(#clip0_81_4678)">
<path d="M18.15 3C18.15 2.58579 17.8142 2.25 17.4 2.25C16.9858 2.25 16.65 2.58579 16.65 3H18.15ZM16.65 6.6C16.65 7.01421 16.9858 7.35 17.4 7.35C17.8142 7.35 18.15 7.01421 18.15 6.6H16.65ZM7.35 3C7.35 2.58579 7.01421 2.25 6.6 2.25C6.18579 2.25 5.85 2.58579 5.85 3H7.35ZM5.85 6.6C5.85 7.01421 6.18579 7.35 6.6 7.35C7.01421 7.35 7.35 7.01421 7.35 6.6H5.85ZM3.58579 20.4142L3.05546 20.9445L3.58579 20.4142ZM20.4142 20.4142L19.8839 19.8839L20.4142 20.4142ZM20.4142 5.38579L20.9445 4.85546L20.4142 5.38579ZM3.58579 5.38579L3.05546 4.85546L3.58579 5.38579ZM20.25 8.8V17H21.75V8.8H20.25ZM17 20.25H7V21.75H17V20.25ZM3.75 17V8.8H2.25V17H3.75ZM7.0013 5.55C7.00822 5.55 7.01513 5.55 7.02205 5.55C7.02896 5.55 7.03587 5.55 7.04278 5.55C7.04969 5.55 7.0566 5.55 7.0635 5.55C7.0704 5.55 7.07731 5.55 7.08421 5.55C7.0911 5.55 7.098 5.55 7.1049 5.55C7.11179 5.55 7.11868 5.55 7.12557 5.55C7.13246 5.55 7.13935 5.55 7.14624 5.55C7.15312 5.55 7.16 5.55 7.16688 5.55C7.17376 5.55 7.18064 5.55 7.18752 5.55C7.19439 5.55 7.20127 5.55 7.20814 5.55C7.21501 5.55 7.22188 5.55 7.22875 5.55C7.23561 5.55 7.24248 5.55 7.24934 5.55C7.2562 5.55 7.26306 5.55 7.26992 5.55C7.27678 5.55 7.28363 5.55 7.29048 5.55C7.29734 5.55 7.30419 5.55 7.31104 5.55C7.31788 5.55 7.32473 5.55 7.33157 5.55C7.33842 5.55 7.34526 5.55 7.3521 5.55C7.35894 5.55 7.36578 5.55 7.37261 5.55C7.37945 5.55 7.38628 5.55 7.39311 5.55C7.39994 5.55 7.40677 5.55 7.41359 5.55C7.42042 5.55 7.42724 5.55 7.43407 5.55C7.44089 5.55 7.44771 5.55 7.45452 5.55C7.46134 5.55 7.46816 5.55 7.47497 5.55C7.48178 5.55 7.48859 5.55 7.4954 5.55C7.50221 5.55 7.50902 5.55 7.51582 5.55C7.52263 5.55 7.52943 5.55 7.53623 5.55C7.54303 5.55 7.54983 5.55 7.55662 5.55C7.56342 5.55 7.57021 5.55 7.577 5.55C7.58379 5.55 7.59058 5.55 7.59737 5.55C7.60416 5.55 7.61094 5.55 7.61772 5.55C7.62451 5.55 7.63129 5.55 7.63806 5.55C7.64484 5.55 7.65162 5.55 7.65839 5.55C7.66517 5.55 7.67194 5.55 7.67871 5.55C7.68548 5.55 7.69225 5.55 7.69902 5.55C7.70578 5.55 7.71254 5.55 7.71931 5.55C7.72607 5.55 7.73283 5.55 7.73959 5.55C7.74634 5.55 7.7531 5.55 7.75985 5.55C7.76661 5.55 7.77336 5.55 7.78011 5.55C7.78686 5.55 7.7936 5.55 7.80035 5.55C7.8071 5.55 7.81384 5.55 7.82058 5.55C7.82732 5.55 7.83406 5.55 7.8408 5.55C7.84754 5.55 7.85427 5.55 7.861 5.55C7.86774 5.55 7.87447 5.55 7.8812 5.55C7.88793 5.55 7.89465 5.55 7.90138 5.55C7.9081 5.55 7.91483 5.55 7.92155 5.55C7.92827 5.55 7.93499 5.55 7.94171 5.55C7.94842 5.55 7.95514 5.55 7.96185 5.55C7.96857 5.55 7.97528 5.55 7.98199 5.55C7.9887 5.55 7.9954 5.55 8.00211 5.55C8.00882 5.55 8.01552 5.55 8.02222 5.55C8.02892 5.55 8.03562 5.55 8.04232 5.55C8.04902 5.55 8.05572 5.55 8.06241 5.55C8.0691 5.55 8.0758 5.55 8.08249 5.55C8.08918 5.55 8.09586 5.55 8.10255 5.55C8.10924 5.55 8.11592 5.55 8.1226 5.55C8.12929 5.55 8.13597 5.55 8.14265 5.55C8.14933 5.55 8.156 5.55 8.16268 5.55C8.16935 5.55 8.17603 5.55 8.1827 5.55C8.18937 5.55 8.19604 5.55 8.20271 5.55C8.20937 5.55 8.21604 5.55 8.2227 5.55C8.22937 5.55 8.23603 5.55 8.24269 5.55C8.24935 5.55 8.25601 5.55 8.26267 5.55C8.26932 5.55 8.27598 5.55 8.28263 5.55C8.28929 5.55 8.29594 5.55 8.30259 5.55C8.30924 5.55 8.31588 5.55 8.32253 5.55C8.32917 5.55 8.33582 5.55 8.34246 5.55C8.3491 5.55 8.35574 5.55 8.36238 5.55C8.36902 5.55 8.37566 5.55 8.38229 5.55C8.38893 5.55 8.39556 5.55 8.40219 5.55C8.40883 5.55 8.41546 5.55 8.42209 5.55C8.42871 5.55 8.43534 5.55 8.44196 5.55C8.44859 5.55 8.45521 5.55 8.46183 5.55C8.46846 5.55 8.47507 5.55 8.48169 5.55C8.48831 5.55 8.49493 5.55 8.50154 5.55C8.50816 5.55 8.51477 5.55 8.52138 5.55C8.52799 5.55 8.5346 5.55 8.54121 5.55C8.54782 5.55 8.55442 5.55 8.56103 5.55C8.56763 5.55 8.57423 5.55 8.58083 5.55C8.58743 5.55 8.59403 5.55 8.60063 5.55C8.60723 5.55 8.61382 5.55 8.62042 5.55C8.62701 5.55 8.63361 5.55 8.6402 5.55C8.64679 5.55 8.65338 5.55 8.65997 5.55C8.66655 5.55 8.67314 5.55 8.67972 5.55C8.68631 5.55 8.69289 5.55 8.69947 5.55C8.70605 5.55 8.71263 5.55 8.71921 5.55C8.72579 5.55 8.73237 5.55 8.73894 5.55C8.74552 5.55 8.75209 5.55 8.75866 5.55C8.76523 5.55 8.7718 5.55 8.77837 5.55C8.78494 5.55 8.79151 5.55 8.79807 5.55C8.80464 5.55 8.8112 5.55 8.81776 5.55C8.82433 5.55 8.83089 5.55 8.83745 5.55C8.844 5.55 8.85056 5.55 8.85712 5.55C8.86367 5.55 8.87023 5.55 8.87678 5.55C8.88334 5.55 8.88989 5.55 8.89644 5.55C8.90299 5.55 8.90953 5.55 8.91608 5.55C8.92263 5.55 8.92917 5.55 8.93572 5.55C8.94226 5.55 8.9488 5.55 8.95535 5.55C8.96189 5.55 8.96843 5.55 8.97496 5.55C8.9815 5.55 8.98804 5.55 8.99457 5.55C9.00111 5.55 9.00764 5.55 9.01417 5.55C9.02071 5.55 9.02724 5.55 9.03377 5.55C9.04029 5.55 9.04682 5.55 9.05335 5.55C9.05988 5.55 9.0664 5.55 9.07292 5.55C9.07945 5.55 9.08597 5.55 9.09249 5.55C9.09901 5.55 9.10553 5.55 9.11205 5.55C9.11856 5.55 9.12508 5.55 9.1316 5.55C9.13811 5.55 9.14462 5.55 9.15114 5.55C9.15765 5.55 9.16416 5.55 9.17067 5.55C9.17718 5.55 9.18368 5.55 9.19019 5.55C9.1967 5.55 9.2032 5.55 9.20971 5.55C9.21621 5.55 9.22271 5.55 9.22921 5.55C9.23571 5.55 9.24221 5.55 9.24871 5.55C9.25521 5.55 9.26171 5.55 9.2682 5.55C9.2747 5.55 9.28119 5.55 9.28769 5.55C9.29418 5.55 9.30067 5.55 9.30716 5.55C9.31365 5.55 9.32014 5.55 9.32663 5.55C9.33312 5.55 9.3396 5.55 9.34609 5.55C9.35257 5.55 9.35906 5.55 9.36554 5.55C9.37202 5.55 9.3785 5.55 9.38498 5.55C9.39146 5.55 9.39794 5.55 9.40442 5.55C9.4109 5.55 9.41737 5.55 9.42385 5.55C9.43032 5.55 9.43679 5.55 9.44327 5.55C9.44974 5.55 9.45621 5.55 9.46268 5.55C9.46915 5.55 9.47562 5.55 9.48209 5.55C9.48855 5.55 9.49502 5.55 9.50148 5.55C9.50795 5.55 9.51441 5.55 9.52087 5.55C9.52734 5.55 9.5338 5.55 9.54026 5.55C9.54672 5.55 9.55318 5.55 9.55963 5.55C9.56609 5.55 9.57255 5.55 9.579 5.55C9.58546 5.55 9.59191 5.55 9.59836 5.55C9.60482 5.55 9.61127 5.55 9.61772 5.55C9.62417 5.55 9.63062 5.55 9.63707 5.55C9.64352 5.55 9.64996 5.55 9.65641 5.55C9.66285 5.55 9.6693 5.55 9.67574 5.55C9.68219 5.55 9.68863 5.55 9.69507 5.55C9.70151 5.55 9.70795 5.55 9.71439 5.55C9.72083 5.55 9.72727 5.55 9.7337 5.55C9.74014 5.55 9.74657 5.55 9.75301 5.55C9.75944 5.55 9.76588 5.55 9.77231 5.55C9.77874 5.55 9.78517 5.55 9.7916 5.55C9.79803 5.55 9.80446 5.55 9.81089 5.55C9.81732 5.55 9.82374 5.55 9.83017 5.55C9.8366 5.55 9.84302 5.55 9.84944 5.55C9.85587 5.55 9.86229 5.55 9.86871 5.55C9.87513 5.55 9.88155 5.55 9.88797 5.55C9.89439 5.55 9.90081 5.55 9.90723 5.55C9.91365 5.55 9.92006 5.55 9.92648 5.55C9.93289 5.55 9.93931 5.55 9.94572 5.55C9.95213 5.55 9.95855 5.55 9.96496 5.55C9.97137 5.55 9.97778 5.55 9.98419 5.55C9.9906 5.55 9.99701 5.55 10.0034 5.55C10.0098 5.55 10.0162 5.55 10.0226 5.55C10.029 5.55 10.0354 5.55 10.0418 5.55C10.0482 5.55 10.0547 5.55 10.0611 5.55C10.0675 5.55 10.0739 5.55 10.0803 5.55C10.0867 5.55 10.0931 5.55 10.0994 5.55C10.1058 5.55 10.1122 5.55 10.1186 5.55C10.125 5.55 10.1314 5.55 10.1378 5.55C10.1442 5.55 10.1506 5.55 10.157 5.55C10.1634 5.55 10.1698 5.55 10.1762 5.55C10.1826 5.55 10.189 5.55 10.1953 5.55C10.2017 5.55 10.2081 5.55 10.2145 5.55C10.2209 5.55 10.2273 5.55 10.2337 5.55C10.2401 5.55 10.2464 5.55 10.2528 5.55C10.2592 5.55 10.2656 5.55 10.272 5.55C10.2783 5.55 10.2847 5.55 10.2911 5.55C10.2975 5.55 10.3039 5.55 10.3102 5.55C10.3166 5.55 10.323 5.55 10.3294 5.55C10.3358 5.55 10.3421 5.55 10.3485 5.55C10.3549 5.55 10.3613 5.55 10.3676 5.55C10.374 5.55 10.3804 5.55 10.3867 5.55C10.3931 5.55 10.3995 5.55 10.4059 5.55C10.4122 5.55 10.4186 5.55 10.425 5.55C10.4313 5.55 10.4377 5.55 10.4441 5.55C10.4504 5.55 10.4568 5.55 10.4632 5.55C10.4695 5.55 10.4759 5.55 10.4823 5.55C10.4886 5.55 10.495 5.55 10.5013 5.55C10.5077 5.55 10.5141 5.55 10.5204 5.55C10.5268 5.55 10.5332 5.55 10.5395 5.55C10.5459 5.55 10.5522 5.55 10.5586 5.55C10.5649 5.55 10.5713 5.55 10.5777 5.55C10.584 5.55 10.5904 5.55 10.5967 5.55C10.6031 5.55 10.6094 5.55 10.6158 5.55C10.6221 5.55 10.6285 5.55 10.6349 5.55C10.6412 5.55 10.6476 5.55 10.6539 5.55C10.6603 5.55 10.6666 5.55 10.673 5.55C10.6793 5.55 10.6857 5.55 10.692 5.55C10.6984 5.55 10.7047 5.55 10.7111 5.55C10.7174 5.55 10.7237 5.55 10.7301 5.55C10.7364 5.55 10.7428 5.55 10.7491 5.55C10.7555 5.55 10.7618 5.55 10.7682 5.55C10.7745 5.55 10.7808 5.55 10.7872 5.55C10.7935 5.55 10.7999 5.55 10.8062 5.55C10.8126 5.55 10.8189 5.55 10.8252 5.55C10.8316 5.55 10.8379 5.55 10.8443 5.55C10.8506 5.55 10.8569 5.55 10.8633 5.55C10.8696 5.55 10.8759 5.55 10.8823 5.55C10.8886 5.55 10.895 5.55 10.9013 5.55C10.9076 5.55 10.914 5.55 10.9203 5.55C10.9266 5.55 10.933 5.55 10.9393 5.55C10.9456 5.55 10.952 5.55 10.9583 5.55C10.9646 5.55 10.971 5.55 10.9773 5.55C10.9836 5.55 10.99 5.55 10.9963 5.55C11.0026 5.55 11.0089 5.55 11.0153 5.55C11.0216 5.55 11.0279 5.55 11.0343 5.55C11.0406 5.55 11.0469 5.55 11.0532 5.55C11.0596 5.55 11.0659 5.55 11.0722 5.55C11.0785 5.55 11.0849 5.55 11.0912 5.55C11.0975 5.55 11.1038 5.55 11.1102 5.55C11.1165 5.55 11.1228 5.55 11.1291 5.55C11.1355 5.55 11.1418 5.55 11.1481 5.55C11.1544 5.55 11.1608 5.55 11.1671 5.55C11.1734 5.55 11.1797 5.55 11.186 5.55C11.1924 5.55 11.1987 5.55 11.205 5.55C11.2113 5.55 11.2177 5.55 11.224 5.55C11.2303 5.55 11.2366 5.55 11.2429 5.55C11.2492 5.55 11.2556 5.55 11.2619 5.55C11.2682 5.55 11.2745 5.55 11.2808 5.55C11.2872 5.55 11.2935 5.55 11.2998 5.55C11.3061 5.55 11.3124 5.55 11.3187 5.55C11.3251 5.55 11.3314 5.55 11.3377 5.55C11.344 5.55 11.3503 5.55 11.3566 5.55C11.3629 5.55 11.3693 5.55 11.3756 5.55C11.3819 5.55 11.3882 5.55 11.3945 5.55C11.4008 5.55 11.4071 5.55 11.4135 5.55C11.4198 5.55 11.4261 5.55 11.4324 5.55C11.4387 5.55 11.445 5.55 11.4513 5.55C11.4576 5.55 11.464 5.55 11.4703 5.55C11.4766 5.55 11.4829 5.55 11.4892 5.55C11.4955 5.55 11.5018 5.55 11.5081 5.55C11.5144 5.55 11.5207 5.55 11.5271 5.55C11.5334 5.55 11.5397 5.55 11.546 5.55C11.5523 5.55 11.5586 5.55 11.5649 5.55C11.5712 5.55 11.5775 5.55 11.5838 5.55C11.5901 5.55 11.5965 5.55 11.6028 5.55C11.6091 5.55 11.6154 5.55 11.6217 5.55C11.628 5.55 11.6343 5.55 11.6406 5.55C11.6469 5.55 11.6532 5.55 11.6595 5.55C11.6658 5.55 11.6721 5.55 11.6785 5.55C11.6848 5.55 11.6911 5.55 11.6974 5.55C11.7037 5.55 11.71 5.55 11.7163 5.55C11.7226 5.55 11.7289 5.55 11.7352 5.55C11.7415 5.55 11.7478 5.55 11.7541 5.55C11.7604 5.55 11.7667 5.55 11.773 5.55C11.7793 5.55 11.7857 5.55 11.792 5.55C11.7983 5.55 11.8046 5.55 11.8109 5.55C11.8172 5.55 11.8235 5.55 11.8298 5.55C11.8361 5.55 11.8424 5.55 11.8487 5.55C11.855 5.55 11.8613 5.55 11.8676 5.55C11.8739 5.55 11.8802 5.55 11.8865 5.55C11.8928 5.55 11.8991 5.55 11.9054 5.55C11.9117 5.55 11.918 5.55 11.9244 5.55C11.9307 5.55 11.937 5.55 11.9433 5.55C11.9496 5.55 11.9559 5.55 11.9622 5.55C11.9685 5.55 11.9748 5.55 11.9811 5.55C11.9874 5.55 11.9937 5.55 12 5.55C12.0063 5.55 12.0126 5.55 12.0189 5.55C12.0252 5.55 12.0315 5.55 12.0378 5.55C12.0441 5.55 12.0504 5.55 12.0567 5.55C12.063 5.55 12.0693 5.55 12.0756 5.55C12.082 5.55 12.0883 5.55 12.0946 5.55C12.1009 5.55 12.1072 5.55 12.1135 5.55C12.1198 5.55 12.1261 5.55 12.1324 5.55C12.1387 5.55 12.145 5.55 12.1513 5.55C12.1576 5.55 12.1639 5.55 12.1702 5.55C12.1765 5.55 12.1828 5.55 12.1891 5.55C12.1954 5.55 12.2017 5.55 12.208 5.55C12.2143 5.55 12.2207 5.55 12.227 5.55C12.2333 5.55 12.2396 5.55 12.2459 5.55C12.2522 5.55 12.2585 5.55 12.2648 5.55C12.2711 5.55 12.2774 5.55 12.2837 5.55C12.29 5.55 12.2963 5.55 12.3026 5.55C12.3089 5.55 12.3152 5.55 12.3215 5.55C12.3279 5.55 12.3342 5.55 12.3405 5.55C12.3468 5.55 12.3531 5.55 12.3594 5.55C12.3657 5.55 12.372 5.55 12.3783 5.55C12.3846 5.55 12.3909 5.55 12.3972 5.55C12.4035 5.55 12.4098 5.55 12.4162 5.55C12.4225 5.55 12.4288 5.55 12.4351 5.55C12.4414 5.55 12.4477 5.55 12.454 5.55C12.4603 5.55 12.4666 5.55 12.4729 5.55C12.4792 5.55 12.4856 5.55 12.4919 5.55C12.4982 5.55 12.5045 5.55 12.5108 5.55C12.5171 5.55 12.5234 5.55 12.5297 5.55C12.536 5.55 12.5424 5.55 12.5487 5.55C12.555 5.55 12.5613 5.55 12.5676 5.55C12.5739 5.55 12.5802 5.55 12.5865 5.55C12.5929 5.55 12.5992 5.55 12.6055 5.55C12.6118 5.55 12.6181 5.55 12.6244 5.55C12.6307 5.55 12.6371 5.55 12.6434 5.55C12.6497 5.55 12.656 5.55 12.6623 5.55C12.6686 5.55 12.6749 5.55 12.6813 5.55C12.6876 5.55 12.6939 5.55 12.7002 5.55C12.7065 5.55 12.7128 5.55 12.7192 5.55C12.7255 5.55 12.7318 5.55 12.7381 5.55C12.7444 5.55 12.7508 5.55 12.7571 5.55C12.7634 5.55 12.7697 5.55 12.776 5.55C12.7823 5.55 12.7887 5.55 12.795 5.55C12.8013 5.55 12.8076 5.55 12.814 5.55C12.8203 5.55 12.8266 5.55 12.8329 5.55C12.8392 5.55 12.8456 5.55 12.8519 5.55C12.8582 5.55 12.8645 5.55 12.8709 5.55C12.8772 5.55 12.8835 5.55 12.8898 5.55C12.8961 5.55 12.9025 5.55 12.9088 5.55C12.9151 5.55 12.9215 5.55 12.9278 5.55C12.9341 5.55 12.9404 5.55 12.9468 5.55C12.9531 5.55 12.9594 5.55 12.9657 5.55C12.9721 5.55 12.9784 5.55 12.9847 5.55C12.9911 5.55 12.9974 5.55 13.0037 5.55C13.01 5.55 13.0164 5.55 13.0227 5.55C13.029 5.55 13.0354 5.55 13.0417 5.55C13.048 5.55 13.0544 5.55 13.0607 5.55C13.067 5.55 13.0734 5.55 13.0797 5.55C13.086 5.55 13.0924 5.55 13.0987 5.55C13.105 5.55 13.1114 5.55 13.1177 5.55C13.1241 5.55 13.1304 5.55 13.1367 5.55C13.1431 5.55 13.1494 5.55 13.1557 5.55C13.1621 5.55 13.1684 5.55 13.1748 5.55C13.1811 5.55 13.1874 5.55 13.1938 5.55C13.2001 5.55 13.2065 5.55 13.2128 5.55C13.2192 5.55 13.2255 5.55 13.2318 5.55C13.2382 5.55 13.2445 5.55 13.2509 5.55C13.2572 5.55 13.2636 5.55 13.2699 5.55C13.2763 5.55 13.2826 5.55 13.2889 5.55C13.2953 5.55 13.3016 5.55 13.308 5.55C13.3143 5.55 13.3207 5.55 13.327 5.55C13.3334 5.55 13.3397 5.55 13.3461 5.55C13.3524 5.55 13.3588 5.55 13.3651 5.55C13.3715 5.55 13.3779 5.55 13.3842 5.55C13.3906 5.55 13.3969 5.55 13.4033 5.55C13.4096 5.55 13.416 5.55 13.4223 5.55C13.4287 5.55 13.4351 5.55 13.4414 5.55C13.4478 5.55 13.4541 5.55 13.4605 5.55C13.4668 5.55 13.4732 5.55 13.4796 5.55C13.4859 5.55 13.4923 5.55 13.4987 5.55C13.505 5.55 13.5114 5.55 13.5177 5.55C13.5241 5.55 13.5305 5.55 13.5368 5.55C13.5432 5.55 13.5496 5.55 13.5559 5.55C13.5623 5.55 13.5687 5.55 13.575 5.55C13.5814 5.55 13.5878 5.55 13.5941 5.55C13.6005 5.55 13.6069 5.55 13.6133 5.55C13.6196 5.55 13.626 5.55 13.6324 5.55C13.6387 5.55 13.6451 5.55 13.6515 5.55C13.6579 5.55 13.6642 5.55 13.6706 5.55C13.677 5.55 13.6834 5.55 13.6898 5.55C13.6961 5.55 13.7025 5.55 13.7089 5.55C13.7153 5.55 13.7217 5.55 13.728 5.55C13.7344 5.55 13.7408 5.55 13.7472 5.55C13.7536 5.55 13.7599 5.55 13.7663 5.55C13.7727 5.55 13.7791 5.55 13.7855 5.55C13.7919 5.55 13.7983 5.55 13.8047 5.55C13.811 5.55 13.8174 5.55 13.8238 5.55C13.8302 5.55 13.8366 5.55 13.843 5.55C13.8494 5.55 13.8558 5.55 13.8622 5.55C13.8686 5.55 13.875 5.55 13.8814 5.55C13.8878 5.55 13.8942 5.55 13.9005 5.55C13.9069 5.55 13.9133 5.55 13.9197 5.55C13.9261 5.55 13.9325 5.55 13.9389 5.55C13.9453 5.55 13.9518 5.55 13.9582 5.55C13.9646 5.55 13.971 5.55 13.9774 5.55C13.9838 5.55 13.9902 5.55 13.9966 5.55C14.003 5.55 14.0094 5.55 14.0158 5.55C14.0222 5.55 14.0286 5.55 14.035 5.55C14.0415 5.55 14.0479 5.55 14.0543 5.55C14.0607 5.55 14.0671 5.55 14.0735 5.55C14.0799 5.55 14.0864 5.55 14.0928 5.55C14.0992 5.55 14.1056 5.55 14.112 5.55C14.1184 5.55 14.1249 5.55 14.1313 5.55C14.1377 5.55 14.1441 5.55 14.1506 5.55C14.157 5.55 14.1634 5.55 14.1698 5.55C14.1763 5.55 14.1827 5.55 14.1891 5.55C14.1955 5.55 14.202 5.55 14.2084 5.55C14.2148 5.55 14.2213 5.55 14.2277 5.55C14.2341 5.55 14.2406 5.55 14.247 5.55C14.2534 5.55 14.2599 5.55 14.2663 5.55C14.2727 5.55 14.2792 5.55 14.2856 5.55C14.292 5.55 14.2985 5.55 14.3049 5.55C14.3114 5.55 14.3178 5.55 14.3243 5.55C14.3307 5.55 14.3371 5.55 14.3436 5.55C14.35 5.55 14.3565 5.55 14.3629 5.55C14.3694 5.55 14.3758 5.55 14.3823 5.55C14.3887 5.55 14.3952 5.55 14.4016 5.55C14.4081 5.55 14.4145 5.55 14.421 5.55C14.4275 5.55 14.4339 5.55 14.4404 5.55C14.4468 5.55 14.4533 5.55 14.4597 5.55C14.4662 5.55 14.4727 5.55 14.4791 5.55C14.4856 5.55 14.4921 5.55 14.4985 5.55C14.505 5.55 14.5114 5.55 14.5179 5.55C14.5244 5.55 14.5308 5.55 14.5373 5.55C14.5438 5.55 14.5503 5.55 14.5567 5.55C14.5632 5.55 14.5697 5.55 14.5762 5.55C14.5826 5.55 14.5891 5.55 14.5956 5.55C14.6021 5.55 14.6085 5.55 14.615 5.55C14.6215 5.55 14.628 5.55 14.6345 5.55C14.6409 5.55 14.6474 5.55 14.6539 5.55C14.6604 5.55 14.6669 5.55 14.6734 5.55C14.6799 5.55 14.6863 5.55 14.6928 5.55C14.6993 5.55 14.7058 5.55 14.7123 5.55C14.7188 5.55 14.7253 5.55 14.7318 5.55C14.7383 5.55 14.7448 5.55 14.7513 5.55C14.7578 5.55 14.7643 5.55 14.7708 5.55C14.7773 5.55 14.7838 5.55 14.7903 5.55C14.7968 5.55 14.8033 5.55 14.8098 5.55C14.8163 5.55 14.8228 5.55 14.8293 5.55C14.8358 5.55 14.8424 5.55 14.8489 5.55C14.8554 5.55 14.8619 5.55 14.8684 5.55C14.8749 5.55 14.8814 5.55 14.888 5.55C14.8945 5.55 14.901 5.55 14.9075 5.55C14.914 5.55 14.9206 5.55 14.9271 5.55C14.9336 5.55 14.9401 5.55 14.9467 5.55C14.9532 5.55 14.9597 5.55 14.9662 5.55C14.9728 5.55 14.9793 5.55 14.9858 5.55C14.9924 5.55 14.9989 5.55 15.0054 5.55C15.012 5.55 15.0185 5.55 15.025 5.55C15.0316 5.55 15.0381 5.55 15.0447 5.55C15.0512 5.55 15.0577 5.55 15.0643 5.55C15.0708 5.55 15.0774 5.55 15.0839 5.55C15.0905 5.55 15.097 5.55 15.1036 5.55C15.1101 5.55 15.1167 5.55 15.1232 5.55C15.1298 5.55 15.1363 5.55 15.1429 5.55C15.1494 5.55 15.156 5.55 15.1626 5.55C15.1691 5.55 15.1757 5.55 15.1822 5.55C15.1888 5.55 15.1954 5.55 15.2019 5.55C15.2085 5.55 15.2151 5.55 15.2216 5.55C15.2282 5.55 15.2348 5.55 15.2413 5.55C15.2479 5.55 15.2545 5.55 15.2611 5.55C15.2676 5.55 15.2742 5.55 15.2808 5.55C15.2874 5.55 15.2939 5.55 15.3005 5.55C15.3071 5.55 15.3137 5.55 15.3203 5.55C15.3269 5.55 15.3334 5.55 15.34 5.55C15.3466 5.55 15.3532 5.55 15.3598 5.55C15.3664 5.55 15.373 5.55 15.3796 5.55C15.3862 5.55 15.3928 5.55 15.3994 5.55C15.406 5.55 15.4126 5.55 15.4192 5.55C15.4258 5.55 15.4324 5.55 15.439 5.55C15.4456 5.55 15.4522 5.55 15.4588 5.55C15.4654 5.55 15.472 5.55 15.4786 5.55C15.4852 5.55 15.4918 5.55 15.4985 5.55C15.5051 5.55 15.5117 5.55 15.5183 5.55C15.5249 5.55 15.5315 5.55 15.5382 5.55C15.5448 5.55 15.5514 5.55 15.558 5.55C15.5647 5.55 15.5713 5.55 15.5779 5.55C15.5845 5.55 15.5912 5.55 15.5978 5.55C15.6044 5.55 15.6111 5.55 15.6177 5.55C15.6243 5.55 15.631 5.55 15.6376 5.55C15.6443 5.55 15.6509 5.55 15.6575 5.55C15.6642 5.55 15.6708 5.55 15.6775 5.55C15.6841 5.55 15.6908 5.55 15.6974 5.55C15.7041 5.55 15.7107 5.55 15.7174 5.55C15.724 5.55 15.7307 5.55 15.7373 5.55C15.744 5.55 15.7506 5.55 15.7573 5.55C15.764 5.55 15.7706 5.55 15.7773 5.55C15.784 5.55 15.7906 5.55 15.7973 5.55C15.804 5.55 15.8106 5.55 15.8173 5.55C15.824 5.55 15.8306 5.55 15.8373 5.55C15.844 5.55 15.8507 5.55 15.8574 5.55C15.864 5.55 15.8707 5.55 15.8774 5.55C15.8841 5.55 15.8908 5.55 15.8974 5.55C15.9041 5.55 15.9108 5.55 15.9175 5.55C15.9242 5.55 15.9309 5.55 15.9376 5.55C15.9443 5.55 15.951 5.55 15.9577 5.55C15.9644 5.55 15.9711 5.55 15.9778 5.55C15.9845 5.55 15.9912 5.55 15.9979 5.55C16.0046 5.55 16.0113 5.55 16.018 5.55C16.0247 5.55 16.0314 5.55 16.0381 5.55C16.0449 5.55 16.0516 5.55 16.0583 5.55C16.065 5.55 16.0717 5.55 16.0785 5.55C16.0852 5.55 16.0919 5.55 16.0986 5.55C16.1053 5.55 16.1121 5.55 16.1188 5.55C16.1255 5.55 16.1323 5.55 16.139 5.55C16.1457 5.55 16.1525 5.55 16.1592 5.55C16.1659 5.55 16.1727 5.55 16.1794 5.55C16.1862 5.55 16.1929 5.55 16.1996 5.55C16.2064 5.55 16.2131 5.55 16.2199 5.55C16.2266 5.55 16.2334 5.55 16.2401 5.55C16.2469 5.55 16.2537 5.55 16.2604 5.55C16.2672 5.55 16.2739 5.55 16.2807 5.55C16.2875 5.55 16.2942 5.55 16.301 5.55C16.3077 5.55 16.3145 5.55 16.3213 5.55C16.3281 5.55 16.3348 5.55 16.3416 5.55C16.3484 5.55 16.3552 5.55 16.3619 5.55C16.3687 5.55 16.3755 5.55 16.3823 5.55C16.3891 5.55 16.3958 5.55 16.4026 5.55C16.4094 5.55 16.4162 5.55 16.423 5.55C16.4298 5.55 16.4366 5.55 16.4434 5.55C16.4502 5.55 16.457 5.55 16.4638 5.55C16.4706 5.55 16.4774 5.55 16.4842 5.55C16.491 5.55 16.4978 5.55 16.5046 5.55C16.5114 5.55 16.5182 5.55 16.525 5.55C16.5318 5.55 16.5387 5.55 16.5455 5.55C16.5523 5.55 16.5591 5.55 16.5659 5.55C16.5728 5.55 16.5796 5.55 16.5864 5.55C16.5932 5.55 16.6001 5.55 16.6069 5.55C16.6137 5.55 16.6206 5.55 16.6274 5.55C16.6342 5.55 16.6411 5.55 16.6479 5.55C16.6547 5.55 16.6616 5.55 16.6684 5.55C16.6753 5.55 16.6821 5.55 16.689 5.55C16.6958 5.55 16.7027 5.55 16.7095 5.55C16.7164 5.55 16.7232 5.55 16.7301 5.55C16.7369 5.55 16.7438 5.55 16.7507 5.55C16.7575 5.55 16.7644 5.55 16.7713 5.55C16.7781 5.55 16.785 5.55 16.7919 5.55C16.7987 5.55 16.8056 5.55 16.8125 5.55C16.8194 5.55 16.8262 5.55 16.8331 5.55C16.84 5.55 16.8469 5.55 16.8538 5.55C16.8606 5.55 16.8675 5.55 16.8744 5.55C16.8813 5.55 16.8882 5.55 16.8951 5.55C16.902 5.55 16.9089 5.55 16.9158 5.55C16.9227 5.55 16.9296 5.55 16.9365 5.55C16.9434 5.55 16.9503 5.55 16.9572 5.55C16.9641 5.55 16.971 5.55 16.978 5.55C16.9849 5.55 16.9918 5.55 16.9987 5.55V4.05C16.9918 4.05 16.9849 4.05 16.978 4.05C16.971 4.05 16.9641 4.05 16.9572 4.05C16.9503 4.05 16.9434 4.05 16.9365 4.05C16.9296 4.05 16.9227 4.05 16.9158 4.05C16.9089 4.05 16.902 4.05 16.8951 4.05C16.8882 4.05 16.8813 4.05 16.8744 4.05C16.8675 4.05 16.8606 4.05 16.8538 4.05C16.8469 4.05 16.84 4.05 16.8331 4.05C16.8262 4.05 16.8194 4.05 16.8125 4.05C16.8056 4.05 16.7987 4.05 16.7919 4.05C16.785 4.05 16.7781 4.05 16.7713 4.05C16.7644 4.05 16.7575 4.05 16.7507 4.05C16.7438 4.05 16.7369 4.05 16.7301 4.05C16.7232 4.05 16.7164 4.05 16.7095 4.05C16.7027 4.05 16.6958 4.05 16.689 4.05C16.6821 4.05 16.6753 4.05 16.6684 4.05C16.6616 4.05 16.6547 4.05 16.6479 4.05C16.6411 4.05 16.6342 4.05 16.6274 4.05C16.6206 4.05 16.6137 4.05 16.6069 4.05C16.6001 4.05 16.5932 4.05 16.5864 4.05C16.5796 4.05 16.5728 4.05 16.5659 4.05C16.5591 4.05 16.5523 4.05 16.5455 4.05C16.5387 4.05 16.5318 4.05 16.525 4.05C16.5182 4.05 16.5114 4.05 16.5046 4.05C16.4978 4.05 16.491 4.05 16.4842 4.05C16.4774 4.05 16.4706 4.05 16.4638 4.05C16.457 4.05 16.4502 4.05 16.4434 4.05C16.4366 4.05 16.4298 4.05 16.423 4.05C16.4162 4.05 16.4094 4.05 16.4026 4.05C16.3958 4.05 16.3891 4.05 16.3823 4.05C16.3755 4.05 16.3687 4.05 16.3619 4.05C16.3552 4.05 16.3484 4.05 16.3416 4.05C16.3348 4.05 16.3281 4.05 16.3213 4.05C16.3145 4.05 16.3077 4.05 16.301 4.05C16.2942 4.05 16.2875 4.05 16.2807 4.05C16.2739 4.05 16.2672 4.05 16.2604 4.05C16.2537 4.05 16.2469 4.05 16.2401 4.05C16.2334 4.05 16.2266 4.05 16.2199 4.05C16.2131 4.05 16.2064 4.05 16.1996 4.05C16.1929 4.05 16.1862 4.05 16.1794 4.05C16.1727 4.05 16.1659 4.05 16.1592 4.05C16.1525 4.05 16.1457 4.05 16.139 4.05C16.1323 4.05 16.1255 4.05 16.1188 4.05C16.1121 4.05 16.1053 4.05 16.0986 4.05C16.0919 4.05 16.0852 4.05 16.0785 4.05C16.0717 4.05 16.065 4.05 16.0583 4.05C16.0516 4.05 16.0449 4.05 16.0381 4.05C16.0314 4.05 16.0247 4.05 16.018 4.05C16.0113 4.05 16.0046 4.05 15.9979 4.05C15.9912 4.05 15.9845 4.05 15.9778 4.05C15.9711 4.05 15.9644 4.05 15.9577 4.05C15.951 4.05 15.9443 4.05 15.9376 4.05C15.9309 4.05 15.9242 4.05 15.9175 4.05C15.9108 4.05 15.9041 4.05 15.8974 4.05C15.8908 4.05 15.8841 4.05 15.8774 4.05C15.8707 4.05 15.864 4.05 15.8574 4.05C15.8507 4.05 15.844 4.05 15.8373 4.05C15.8306 4.05 15.824 4.05 15.8173 4.05C15.8106 4.05 15.804 4.05 15.7973 4.05C15.7906 4.05 15.784 4.05 15.7773 4.05C15.7706 4.05 15.764 4.05 15.7573 4.05C15.7506 4.05 15.744 4.05 15.7373 4.05C15.7307 4.05 15.724 4.05 15.7174 4.05C15.7107 4.05 15.7041 4.05 15.6974 4.05C15.6908 4.05 15.6841 4.05 15.6775 4.05C15.6708 4.05 15.6642 4.05 15.6575 4.05C15.6509 4.05 15.6443 4.05 15.6376 4.05C15.631 4.05 15.6243 4.05 15.6177 4.05C15.6111 4.05 15.6044 4.05 15.5978 4.05C15.5912 4.05 15.5845 4.05 15.5779 4.05C15.5713 4.05 15.5647 4.05 15.558 4.05C15.5514 4.05 15.5448 4.05 15.5382 4.05C15.5315 4.05 15.5249 4.05 15.5183 4.05C15.5117 4.05 15.5051 4.05 15.4985 4.05C15.4918 4.05 15.4852 4.05 15.4786 4.05C15.472 4.05 15.4654 4.05 15.4588 4.05C15.4522 4.05 15.4456 4.05 15.439 4.05C15.4324 4.05 15.4258 4.05 15.4192 4.05C15.4126 4.05 15.406 4.05 15.3994 4.05C15.3928 4.05 15.3862 4.05 15.3796 4.05C15.373 4.05 15.3664 4.05 15.3598 4.05C15.3532 4.05 15.3466 4.05 15.34 4.05C15.3334 4.05 15.3269 4.05 15.3203 4.05C15.3137 4.05 15.3071 4.05 15.3005 4.05C15.2939 4.05 15.2874 4.05 15.2808 4.05C15.2742 4.05 15.2676 4.05 15.2611 4.05C15.2545 4.05 15.2479 4.05 15.2413 4.05C15.2348 4.05 15.2282 4.05 15.2216 4.05C15.2151 4.05 15.2085 4.05 15.2019 4.05C15.1954 4.05 15.1888 4.05 15.1822 4.05C15.1757 4.05 15.1691 4.05 15.1626 4.05C15.156 4.05 15.1494 4.05 15.1429 4.05C15.1363 4.05 15.1298 4.05 15.1232 4.05C15.1167 4.05 15.1101 4.05 15.1036 4.05C15.097 4.05 15.0905 4.05 15.0839 4.05C15.0774 4.05 15.0708 4.05 15.0643 4.05C15.0577 4.05 15.0512 4.05 15.0447 4.05C15.0381 4.05 15.0316 4.05 15.025 4.05C15.0185 4.05 15.012 4.05 15.0054 4.05C14.9989 4.05 14.9924 4.05 14.9858 4.05C14.9793 4.05 14.9728 4.05 14.9662 4.05C14.9597 4.05 14.9532 4.05 14.9467 4.05C14.9401 4.05 14.9336 4.05 14.9271 4.05C14.9206 4.05 14.914 4.05 14.9075 4.05C14.901 4.05 14.8945 4.05 14.888 4.05C14.8814 4.05 14.8749 4.05 14.8684 4.05C14.8619 4.05 14.8554 4.05 14.8489 4.05C14.8424 4.05 14.8358 4.05 14.8293 4.05C14.8228 4.05 14.8163 4.05 14.8098 4.05C14.8033 4.05 14.7968 4.05 14.7903 4.05C14.7838 4.05 14.7773 4.05 14.7708 4.05C14.7643 4.05 14.7578 4.05 14.7513 4.05C14.7448 4.05 14.7383 4.05 14.7318 4.05C14.7253 4.05 14.7188 4.05 14.7123 4.05C14.7058 4.05 14.6993 4.05 14.6928 4.05C14.6863 4.05 14.6799 4.05 14.6734 4.05C14.6669 4.05 14.6604 4.05 14.6539 4.05C14.6474 4.05 14.6409 4.05 14.6345 4.05C14.628 4.05 14.6215 4.05 14.615 4.05C14.6085 4.05 14.6021 4.05 14.5956 4.05C14.5891 4.05 14.5826 4.05 14.5762 4.05C14.5697 4.05 14.5632 4.05 14.5567 4.05C14.5503 4.05 14.5438 4.05 14.5373 4.05C14.5308 4.05 14.5244 4.05 14.5179 4.05C14.5114 4.05 14.505 4.05 14.4985 4.05C14.4921 4.05 14.4856 4.05 14.4791 4.05C14.4727 4.05 14.4662 4.05 14.4597 4.05C14.4533 4.05 14.4468 4.05 14.4404 4.05C14.4339 4.05 14.4275 4.05 14.421 4.05C14.4145 4.05 14.4081 4.05 14.4016 4.05C14.3952 4.05 14.3887 4.05 14.3823 4.05C14.3758 4.05 14.3694 4.05 14.3629 4.05C14.3565 4.05 14.35 4.05 14.3436 4.05C14.3371 4.05 14.3307 4.05 14.3243 4.05C14.3178 4.05 14.3114 4.05 14.3049 4.05C14.2985 4.05 14.292 4.05 14.2856 4.05C14.2792 4.05 14.2727 4.05 14.2663 4.05C14.2599 4.05 14.2534 4.05 14.247 4.05C14.2406 4.05 14.2341 4.05 14.2277 4.05C14.2213 4.05 14.2148 4.05 14.2084 4.05C14.202 4.05 14.1955 4.05 14.1891 4.05C14.1827 4.05 14.1763 4.05 14.1698 4.05C14.1634 4.05 14.157 4.05 14.1506 4.05C14.1441 4.05 14.1377 4.05 14.1313 4.05C14.1249 4.05 14.1184 4.05 14.112 4.05C14.1056 4.05 14.0992 4.05 14.0928 4.05C14.0864 4.05 14.0799 4.05 14.0735 4.05C14.0671 4.05 14.0607 4.05 14.0543 4.05C14.0479 4.05 14.0415 4.05 14.035 4.05C14.0286 4.05 14.0222 4.05 14.0158 4.05C14.0094 4.05 14.003 4.05 13.9966 4.05C13.9902 4.05 13.9838 4.05 13.9774 4.05C13.971 4.05 13.9646 4.05 13.9582 4.05C13.9518 4.05 13.9453 4.05 13.9389 4.05C13.9325 4.05 13.9261 4.05 13.9197 4.05C13.9133 4.05 13.9069 4.05 13.9005 4.05C13.8942 4.05 13.8878 4.05 13.8814 4.05C13.875 4.05 13.8686 4.05 13.8622 4.05C13.8558 4.05 13.8494 4.05 13.843 4.05C13.8366 4.05 13.8302 4.05 13.8238 4.05C13.8174 4.05 13.811 4.05 13.8047 4.05C13.7983 4.05 13.7919 4.05 13.7855 4.05C13.7791 4.05 13.7727 4.05 13.7663 4.05C13.7599 4.05 13.7536 4.05 13.7472 4.05C13.7408 4.05 13.7344 4.05 13.728 4.05C13.7217 4.05 13.7153 4.05 13.7089 4.05C13.7025 4.05 13.6961 4.05 13.6898 4.05C13.6834 4.05 13.677 4.05 13.6706 4.05C13.6642 4.05 13.6579 4.05 13.6515 4.05C13.6451 4.05 13.6387 4.05 13.6324 4.05C13.626 4.05 13.6196 4.05 13.6133 4.05C13.6069 4.05 13.6005 4.05 13.5941 4.05C13.5878 4.05 13.5814 4.05 13.575 4.05C13.5687 4.05 13.5623 4.05 13.5559 4.05C13.5496 4.05 13.5432 4.05 13.5368 4.05C13.5305 4.05 13.5241 4.05 13.5177 4.05C13.5114 4.05 13.505 4.05 13.4987 4.05C13.4923 4.05 13.4859 4.05 13.4796 4.05C13.4732 4.05 13.4668 4.05 13.4605 4.05C13.4541 4.05 13.4478 4.05 13.4414 4.05C13.4351 4.05 13.4287 4.05 13.4223 4.05C13.416 4.05 13.4096 4.05 13.4033 4.05C13.3969 4.05 13.3906 4.05 13.3842 4.05C13.3779 4.05 13.3715 4.05 13.3651 4.05C13.3588 4.05 13.3524 4.05 13.3461 4.05C13.3397 4.05 13.3334 4.05 13.327 4.05C13.3207 4.05 13.3143 4.05 13.308 4.05C13.3016 4.05 13.2953 4.05 13.2889 4.05C13.2826 4.05 13.2763 4.05 13.2699 4.05C13.2636 4.05 13.2572 4.05 13.2509 4.05C13.2445 4.05 13.2382 4.05 13.2318 4.05C13.2255 4.05 13.2192 4.05 13.2128 4.05C13.2065 4.05 13.2001 4.05 13.1938 4.05C13.1874 4.05 13.1811 4.05 13.1748 4.05C13.1684 4.05 13.1621 4.05 13.1557 4.05C13.1494 4.05 13.1431 4.05 13.1367 4.05C13.1304 4.05 13.1241 4.05 13.1177 4.05C13.1114 4.05 13.105 4.05 13.0987 4.05C13.0924 4.05 13.086 4.05 13.0797 4.05C13.0734 4.05 13.067 4.05 13.0607 4.05C13.0544 4.05 13.048 4.05 13.0417 4.05C13.0354 4.05 13.029 4.05 13.0227 4.05C13.0164 4.05 13.01 4.05 13.0037 4.05C12.9974 4.05 12.9911 4.05 12.9847 4.05C12.9784 4.05 12.9721 4.05 12.9657 4.05C12.9594 4.05 12.9531 4.05 12.9468 4.05C12.9404 4.05 12.9341 4.05 12.9278 4.05C12.9215 4.05 12.9151 4.05 12.9088 4.05C12.9025 4.05 12.8961 4.05 12.8898 4.05C12.8835 4.05 12.8772 4.05 12.8709 4.05C12.8645 4.05 12.8582 4.05 12.8519 4.05C12.8456 4.05 12.8392 4.05 12.8329 4.05C12.8266 4.05 12.8203 4.05 12.814 4.05C12.8076 4.05 12.8013 4.05 12.795 4.05C12.7887 4.05 12.7823 4.05 12.776 4.05C12.7697 4.05 12.7634 4.05 12.7571 4.05C12.7508 4.05 12.7444 4.05 12.7381 4.05C12.7318 4.05 12.7255 4.05 12.7192 4.05C12.7128 4.05 12.7065 4.05 12.7002 4.05C12.6939 4.05 12.6876 4.05 12.6813 4.05C12.6749 4.05 12.6686 4.05 12.6623 4.05C12.656 4.05 12.6497 4.05 12.6434 4.05C12.6371 4.05 12.6307 4.05 12.6244 4.05C12.6181 4.05 12.6118 4.05 12.6055 4.05C12.5992 4.05 12.5929 4.05 12.5865 4.05C12.5802 4.05 12.5739 4.05 12.5676 4.05C12.5613 4.05 12.555 4.05 12.5487 4.05C12.5424 4.05 12.536 4.05 12.5297 4.05C12.5234 4.05 12.5171 4.05 12.5108 4.05C12.5045 4.05 12.4982 4.05 12.4919 4.05C12.4856 4.05 12.4792 4.05 12.4729 4.05C12.4666 4.05 12.4603 4.05 12.454 4.05C12.4477 4.05 12.4414 4.05 12.4351 4.05C12.4288 4.05 12.4225 4.05 12.4162 4.05C12.4098 4.05 12.4035 4.05 12.3972 4.05C12.3909 4.05 12.3846 4.05 12.3783 4.05C12.372 4.05 12.3657 4.05 12.3594 4.05C12.3531 4.05 12.3468 4.05 12.3405 4.05C12.3342 4.05 12.3279 4.05 12.3215 4.05C12.3152 4.05 12.3089 4.05 12.3026 4.05C12.2963 4.05 12.29 4.05 12.2837 4.05C12.2774 4.05 12.2711 4.05 12.2648 4.05C12.2585 4.05 12.2522 4.05 12.2459 4.05C12.2396 4.05 12.2333 4.05 12.227 4.05C12.2207 4.05 12.2143 4.05 12.208 4.05C12.2017 4.05 12.1954 4.05 12.1891 4.05C12.1828 4.05 12.1765 4.05 12.1702 4.05C12.1639 4.05 12.1576 4.05 12.1513 4.05C12.145 4.05 12.1387 4.05 12.1324 4.05C12.1261 4.05 12.1198 4.05 12.1135 4.05C12.1072 4.05 12.1009 4.05 12.0946 4.05C12.0883 4.05 12.082 4.05 12.0756 4.05C12.0693 4.05 12.063 4.05 12.0567 4.05C12.0504 4.05 12.0441 4.05 12.0378 4.05C12.0315 4.05 12.0252 4.05 12.0189 4.05C12.0126 4.05 12.0063 4.05 12 4.05C11.9937 4.05 11.9874 4.05 11.9811 4.05C11.9748 4.05 11.9685 4.05 11.9622 4.05C11.9559 4.05 11.9496 4.05 11.9433 4.05C11.937 4.05 11.9307 4.05 11.9244 4.05C11.918 4.05 11.9117 4.05 11.9054 4.05C11.8991 4.05 11.8928 4.05 11.8865 4.05C11.8802 4.05 11.8739 4.05 11.8676 4.05C11.8613 4.05 11.855 4.05 11.8487 4.05C11.8424 4.05 11.8361 4.05 11.8298 4.05C11.8235 4.05 11.8172 4.05 11.8109 4.05C11.8046 4.05 11.7983 4.05 11.792 4.05C11.7857 4.05 11.7793 4.05 11.773 4.05C11.7667 4.05 11.7604 4.05 11.7541 4.05C11.7478 4.05 11.7415 4.05 11.7352 4.05C11.7289 4.05 11.7226 4.05 11.7163 4.05C11.71 4.05 11.7037 4.05 11.6974 4.05C11.6911 4.05 11.6848 4.05 11.6785 4.05C11.6721 4.05 11.6658 4.05 11.6595 4.05C11.6532 4.05 11.6469 4.05 11.6406 4.05C11.6343 4.05 11.628 4.05 11.6217 4.05C11.6154 4.05 11.6091 4.05 11.6028 4.05C11.5965 4.05 11.5901 4.05 11.5838 4.05C11.5775 4.05 11.5712 4.05 11.5649 4.05C11.5586 4.05 11.5523 4.05 11.546 4.05C11.5397 4.05 11.5334 4.05 11.5271 4.05C11.5207 4.05 11.5144 4.05 11.5081 4.05C11.5018 4.05 11.4955 4.05 11.4892 4.05C11.4829 4.05 11.4766 4.05 11.4703 4.05C11.464 4.05 11.4576 4.05 11.4513 4.05C11.445 4.05 11.4387 4.05 11.4324 4.05C11.4261 4.05 11.4198 4.05 11.4135 4.05C11.4071 4.05 11.4008 4.05 11.3945 4.05C11.3882 4.05 11.3819 4.05 11.3756 4.05C11.3693 4.05 11.3629 4.05 11.3566 4.05C11.3503 4.05 11.344 4.05 11.3377 4.05C11.3314 4.05 11.3251 4.05 11.3187 4.05C11.3124 4.05 11.3061 4.05 11.2998 4.05C11.2935 4.05 11.2872 4.05 11.2808 4.05C11.2745 4.05 11.2682 4.05 11.2619 4.05C11.2556 4.05 11.2492 4.05 11.2429 4.05C11.2366 4.05 11.2303 4.05 11.224 4.05C11.2177 4.05 11.2113 4.05 11.205 4.05C11.1987 4.05 11.1924 4.05 11.186 4.05C11.1797 4.05 11.1734 4.05 11.1671 4.05C11.1608 4.05 11.1544 4.05 11.1481 4.05C11.1418 4.05 11.1355 4.05 11.1291 4.05C11.1228 4.05 11.1165 4.05 11.1102 4.05C11.1038 4.05 11.0975 4.05 11.0912 4.05C11.0849 4.05 11.0785 4.05 11.0722 4.05C11.0659 4.05 11.0596 4.05 11.0532 4.05C11.0469 4.05 11.0406 4.05 11.0343 4.05C11.0279 4.05 11.0216 4.05 11.0153 4.05C11.0089 4.05 11.0026 4.05 10.9963 4.05C10.99 4.05 10.9836 4.05 10.9773 4.05C10.971 4.05 10.9646 4.05 10.9583 4.05C10.952 4.05 10.9456 4.05 10.9393 4.05C10.933 4.05 10.9266 4.05 10.9203 4.05C10.914 4.05 10.9076 4.05 10.9013 4.05C10.895 4.05 10.8886 4.05 10.8823 4.05C10.8759 4.05 10.8696 4.05 10.8633 4.05C10.8569 4.05 10.8506 4.05 10.8443 4.05C10.8379 4.05 10.8316 4.05 10.8252 4.05C10.8189 4.05 10.8126 4.05 10.8062 4.05C10.7999 4.05 10.7935 4.05 10.7872 4.05C10.7808 4.05 10.7745 4.05 10.7682 4.05C10.7618 4.05 10.7555 4.05 10.7491 4.05C10.7428 4.05 10.7364 4.05 10.7301 4.05C10.7237 4.05 10.7174 4.05 10.7111 4.05C10.7047 4.05 10.6984 4.05 10.692 4.05C10.6857 4.05 10.6793 4.05 10.673 4.05C10.6666 4.05 10.6603 4.05 10.6539 4.05C10.6476 4.05 10.6412 4.05 10.6349 4.05C10.6285 4.05 10.6221 4.05 10.6158 4.05C10.6094 4.05 10.6031 4.05 10.5967 4.05C10.5904 4.05 10.584 4.05 10.5777 4.05C10.5713 4.05 10.5649 4.05 10.5586 4.05C10.5522 4.05 10.5459 4.05 10.5395 4.05C10.5332 4.05 10.5268 4.05 10.5204 4.05C10.5141 4.05 10.5077 4.05 10.5013 4.05C10.495 4.05 10.4886 4.05 10.4823 4.05C10.4759 4.05 10.4695 4.05 10.4632 4.05C10.4568 4.05 10.4504 4.05 10.4441 4.05C10.4377 4.05 10.4313 4.05 10.425 4.05C10.4186 4.05 10.4122 4.05 10.4059 4.05C10.3995 4.05 10.3931 4.05 10.3867 4.05C10.3804 4.05 10.374 4.05 10.3676 4.05C10.3613 4.05 10.3549 4.05 10.3485 4.05C10.3421 4.05 10.3358 4.05 10.3294 4.05C10.323 4.05 10.3166 4.05 10.3102 4.05C10.3039 4.05 10.2975 4.05 10.2911 4.05C10.2847 4.05 10.2783 4.05 10.272 4.05C10.2656 4.05 10.2592 4.05 10.2528 4.05C10.2464 4.05 10.2401 4.05 10.2337 4.05C10.2273 4.05 10.2209 4.05 10.2145 4.05C10.2081 4.05 10.2017 4.05 10.1953 4.05C10.189 4.05 10.1826 4.05 10.1762 4.05C10.1698 4.05 10.1634 4.05 10.157 4.05C10.1506 4.05 10.1442 4.05 10.1378 4.05C10.1314 4.05 10.125 4.05 10.1186 4.05C10.1122 4.05 10.1058 4.05 10.0994 4.05C10.0931 4.05 10.0867 4.05 10.0803 4.05C10.0739 4.05 10.0675 4.05 10.0611 4.05C10.0547 4.05 10.0482 4.05 10.0418 4.05C10.0354 4.05 10.029 4.05 10.0226 4.05C10.0162 4.05 10.0098 4.05 10.0034 4.05C9.99701 4.05 9.9906 4.05 9.98419 4.05C9.97778 4.05 9.97137 4.05 9.96496 4.05C9.95855 4.05 9.95213 4.05 9.94572 4.05C9.93931 4.05 9.93289 4.05 9.92648 4.05C9.92006 4.05 9.91365 4.05 9.90723 4.05C9.90081 4.05 9.89439 4.05 9.88797 4.05C9.88155 4.05 9.87513 4.05 9.86871 4.05C9.86229 4.05 9.85587 4.05 9.84944 4.05C9.84302 4.05 9.8366 4.05 9.83017 4.05C9.82374 4.05 9.81732 4.05 9.81089 4.05C9.80446 4.05 9.79803 4.05 9.7916 4.05C9.78517 4.05 9.77874 4.05 9.77231 4.05C9.76588 4.05 9.75944 4.05 9.75301 4.05C9.74657 4.05 9.74014 4.05 9.7337 4.05C9.72727 4.05 9.72083 4.05 9.71439 4.05C9.70795 4.05 9.70151 4.05 9.69507 4.05C9.68863 4.05 9.68219 4.05 9.67574 4.05C9.6693 4.05 9.66285 4.05 9.65641 4.05C9.64996 4.05 9.64352 4.05 9.63707 4.05C9.63062 4.05 9.62417 4.05 9.61772 4.05C9.61127 4.05 9.60482 4.05 9.59836 4.05C9.59191 4.05 9.58546 4.05 9.579 4.05C9.57255 4.05 9.56609 4.05 9.55963 4.05C9.55318 4.05 9.54672 4.05 9.54026 4.05C9.5338 4.05 9.52734 4.05 9.52087 4.05C9.51441 4.05 9.50795 4.05 9.50148 4.05C9.49502 4.05 9.48855 4.05 9.48209 4.05C9.47562 4.05 9.46915 4.05 9.46268 4.05C9.45621 4.05 9.44974 4.05 9.44327 4.05C9.43679 4.05 9.43032 4.05 9.42385 4.05C9.41737 4.05 9.4109 4.05 9.40442 4.05C9.39794 4.05 9.39146 4.05 9.38498 4.05C9.3785 4.05 9.37202 4.05 9.36554 4.05C9.35906 4.05 9.35257 4.05 9.34609 4.05C9.3396 4.05 9.33312 4.05 9.32663 4.05C9.32014 4.05 9.31365 4.05 9.30716 4.05C9.30067 4.05 9.29418 4.05 9.28769 4.05C9.28119 4.05 9.2747 4.05 9.2682 4.05C9.26171 4.05 9.25521 4.05 9.24871 4.05C9.24221 4.05 9.23571 4.05 9.22921 4.05C9.22271 4.05 9.21621 4.05 9.20971 4.05C9.2032 4.05 9.1967 4.05 9.19019 4.05C9.18368 4.05 9.17718 4.05 9.17067 4.05C9.16416 4.05 9.15765 4.05 9.15114 4.05C9.14462 4.05 9.13811 4.05 9.1316 4.05C9.12508 4.05 9.11856 4.05 9.11205 4.05C9.10553 4.05 9.09901 4.05 9.09249 4.05C9.08597 4.05 9.07945 4.05 9.07292 4.05C9.0664 4.05 9.05988 4.05 9.05335 4.05C9.04682 4.05 9.04029 4.05 9.03377 4.05C9.02724 4.05 9.02071 4.05 9.01417 4.05C9.00764 4.05 9.00111 4.05 8.99457 4.05C8.98804 4.05 8.9815 4.05 8.97496 4.05C8.96843 4.05 8.96189 4.05 8.95535 4.05C8.9488 4.05 8.94226 4.05 8.93572 4.05C8.92917 4.05 8.92263 4.05 8.91608 4.05C8.90953 4.05 8.90299 4.05 8.89644 4.05C8.88989 4.05 8.88334 4.05 8.87678 4.05C8.87023 4.05 8.86367 4.05 8.85712 4.05C8.85056 4.05 8.844 4.05 8.83745 4.05C8.83089 4.05 8.82433 4.05 8.81776 4.05C8.8112 4.05 8.80464 4.05 8.79807 4.05C8.79151 4.05 8.78494 4.05 8.77837 4.05C8.7718 4.05 8.76523 4.05 8.75866 4.05C8.75209 4.05 8.74552 4.05 8.73894 4.05C8.73237 4.05 8.72579 4.05 8.71921 4.05C8.71263 4.05 8.70605 4.05 8.69947 4.05C8.69289 4.05 8.68631 4.05 8.67972 4.05C8.67314 4.05 8.66655 4.05 8.65997 4.05C8.65338 4.05 8.64679 4.05 8.6402 4.05C8.63361 4.05 8.62701 4.05 8.62042 4.05C8.61382 4.05 8.60723 4.05 8.60063 4.05C8.59403 4.05 8.58743 4.05 8.58083 4.05C8.57423 4.05 8.56763 4.05 8.56103 4.05C8.55442 4.05 8.54782 4.05 8.54121 4.05C8.5346 4.05 8.52799 4.05 8.52138 4.05C8.51477 4.05 8.50816 4.05 8.50154 4.05C8.49493 4.05 8.48831 4.05 8.48169 4.05C8.47507 4.05 8.46846 4.05 8.46183 4.05C8.45521 4.05 8.44859 4.05 8.44196 4.05C8.43534 4.05 8.42871 4.05 8.42209 4.05C8.41546 4.05 8.40883 4.05 8.40219 4.05C8.39556 4.05 8.38893 4.05 8.38229 4.05C8.37566 4.05 8.36902 4.05 8.36238 4.05C8.35574 4.05 8.3491 4.05 8.34246 4.05C8.33582 4.05 8.32917 4.05 8.32253 4.05C8.31588 4.05 8.30924 4.05 8.30259 4.05C8.29594 4.05 8.28929 4.05 8.28263 4.05C8.27598 4.05 8.26932 4.05 8.26267 4.05C8.25601 4.05 8.24935 4.05 8.24269 4.05C8.23603 4.05 8.22937 4.05 8.2227 4.05C8.21604 4.05 8.20937 4.05 8.20271 4.05C8.19604 4.05 8.18937 4.05 8.1827 4.05C8.17603 4.05 8.16935 4.05 8.16268 4.05C8.156 4.05 8.14933 4.05 8.14265 4.05C8.13597 4.05 8.12929 4.05 8.1226 4.05C8.11592 4.05 8.10924 4.05 8.10255 4.05C8.09586 4.05 8.08918 4.05 8.08249 4.05C8.0758 4.05 8.0691 4.05 8.06241 4.05C8.05572 4.05 8.04902 4.05 8.04232 4.05C8.03562 4.05 8.02892 4.05 8.02222 4.05C8.01552 4.05 8.00882 4.05 8.00211 4.05C7.9954 4.05 7.9887 4.05 7.98199 4.05C7.97528 4.05 7.96857 4.05 7.96185 4.05C7.95514 4.05 7.94842 4.05 7.94171 4.05C7.93499 4.05 7.92827 4.05 7.92155 4.05C7.91483 4.05 7.9081 4.05 7.90138 4.05C7.89465 4.05 7.88793 4.05 7.8812 4.05C7.87447 4.05 7.86774 4.05 7.861 4.05C7.85427 4.05 7.84754 4.05 7.8408 4.05C7.83406 4.05 7.82732 4.05 7.82058 4.05C7.81384 4.05 7.8071 4.05 7.80035 4.05C7.7936 4.05 7.78686 4.05 7.78011 4.05C7.77336 4.05 7.76661 4.05 7.75985 4.05C7.7531 4.05 7.74634 4.05 7.73959 4.05C7.73283 4.05 7.72607 4.05 7.71931 4.05C7.71254 4.05 7.70578 4.05 7.69902 4.05C7.69225 4.05 7.68548 4.05 7.67871 4.05C7.67194 4.05 7.66517 4.05 7.65839 4.05C7.65162 4.05 7.64484 4.05 7.63806 4.05C7.63129 4.05 7.62451 4.05 7.61772 4.05C7.61094 4.05 7.60416 4.05 7.59737 4.05C7.59058 4.05 7.58379 4.05 7.577 4.05C7.57021 4.05 7.56342 4.05 7.55662 4.05C7.54983 4.05 7.54303 4.05 7.53623 4.05C7.52943 4.05 7.52263 4.05 7.51582 4.05C7.50902 4.05 7.50221 4.05 7.4954 4.05C7.48859 4.05 7.48178 4.05 7.47497 4.05C7.46816 4.05 7.46134 4.05 7.45452 4.05C7.44771 4.05 7.44089 4.05 7.43407 4.05C7.42724 4.05 7.42042 4.05 7.41359 4.05C7.40677 4.05 7.39994 4.05 7.39311 4.05C7.38628 4.05 7.37945 4.05 7.37261 4.05C7.36578 4.05 7.35894 4.05 7.3521 4.05C7.34526 4.05 7.33842 4.05 7.33157 4.05C7.32473 4.05 7.31788 4.05 7.31104 4.05C7.30419 4.05 7.29734 4.05 7.29048 4.05C7.28363 4.05 7.27678 4.05 7.26992 4.05C7.26306 4.05 7.2562 4.05 7.24934 4.05C7.24248 4.05 7.23561 4.05 7.22875 4.05C7.22188 4.05 7.21501 4.05 7.20814 4.05C7.20127 4.05 7.19439 4.05 7.18752 4.05C7.18064 4.05 7.17376 4.05 7.16688 4.05C7.16 4.05 7.15312 4.05 7.14624 4.05C7.13935 4.05 7.13246 4.05 7.12557 4.05C7.11868 4.05 7.11179 4.05 7.1049 4.05C7.098 4.05 7.0911 4.05 7.08421 4.05C7.07731 4.05 7.0704 4.05 7.0635 4.05C7.0566 4.05 7.04969 4.05 7.04278 4.05C7.03587 4.05 7.02896 4.05 7.02205 4.05C7.01513 4.05 7.00822 4.05 7.0013 4.05V5.55ZM21 9.25H3V10.75H21V9.25ZM16.65 3V6.6H18.15V3H16.65ZM5.85 3V6.6H7.35V3H5.85ZM7 20.25C6.03599 20.25 5.38843 20.2484 4.90539 20.1835C4.44393 20.1214 4.24643 20.0142 4.11612 19.8839L3.05546 20.9445C3.51093 21.4 4.07773 21.5857 4.70552 21.6701C5.31174 21.7516 6.07839 21.75 7 21.75V20.25ZM2.25 17C2.25 17.9216 2.24841 18.6883 2.32991 19.2945C2.41432 19.9223 2.59999 20.4891 3.05546 20.9445L4.11612 19.8839C3.9858 19.7536 3.87858 19.5561 3.81654 19.0946C3.75159 18.6116 3.75 17.964 3.75 17H2.25ZM20.25 17C20.25 17.964 20.2484 18.6116 20.1835 19.0946C20.1214 19.5561 20.0142 19.7536 19.8839 19.8839L20.9445 20.9445C21.4 20.4891 21.5857 19.9223 21.6701 19.2945C21.7516 18.6883 21.75 17.9216 21.75 17H20.25ZM17 21.75C17.9216 21.75 18.6883 21.7516 19.2945 21.6701C19.9223 21.5857 20.4891 21.4 20.9445 20.9445L19.8839 19.8839C19.7536 20.0142 19.5561 20.1214 19.0946 20.1835C18.6116 20.2484 17.964 20.25 17 20.25V21.75ZM21.75 8.8C21.75 7.87839 21.7516 7.11174 21.6701 6.50552C21.5857 5.87773 21.4 5.31093 20.9445 4.85546L19.8839 5.91612C20.0142 6.04643 20.1214 6.24393 20.1835 6.70539C20.2484 7.18843 20.25 7.83599 20.25 8.8H21.75ZM16.9987 5.55C17.9631 5.55 18.611 5.55159 19.0943 5.61654C19.5561 5.6786 19.7536 5.78585 19.8839 5.91612L20.9445 4.85546C20.489 4.39994 19.9221 4.2143 19.2941 4.12991C18.6877 4.04841 17.9207 4.05 16.9987 4.05V5.55ZM3.75 8.8C3.75 7.83599 3.75159 7.18843 3.81654 6.70539C3.87858 6.24393 3.9858 6.04643 4.11612 5.91612L3.05546 4.85546C2.59999 5.31093 2.41432 5.87773 2.32991 6.50552C2.24841 7.11174 2.25 7.87839 2.25 8.8H3.75ZM7.0013 4.05C6.07925 4.05 5.3123 4.04841 4.70588 4.12991C4.07795 4.2143 3.51098 4.39994 3.05546 4.85546L4.11612 5.91612C4.24638 5.78585 4.44393 5.6786 4.90568 5.61654C5.38895 5.55159 6.03686 5.55 7.0013 5.55V4.05Z" fill="black"/>
<path d="M8.5 17.5C8.5 18.0523 8.05228 18.5 7.5 18.5C6.94772 18.5 6.5 18.0523 6.5 17.5C6.5 16.9477 6.94772 16.5 7.5 16.5C8.05228 16.5 8.5 16.9477 8.5 17.5Z" fill="black"/>
<path d="M13 17.5C13 18.0523 12.5523 18.5 12 18.5C11.4477 18.5 11 18.0523 11 17.5C11 16.9477 11.4477 16.5 12 16.5C12.5523 16.5 13 16.9477 13 17.5Z" fill="black"/>
<path d="M17.5 17.5C17.5 18.0523 17.0523 18.5 16.5 18.5C15.9477 18.5 15.5 18.0523 15.5 17.5C15.5 16.9477 15.9477 16.5 16.5 16.5C17.0523 16.5 17.5 16.9477 17.5 17.5Z" fill="black"/>
<path d="M17.5 17.5C17.5 18.0523 17.0523 18.5 16.5 18.5C15.9477 18.5 15.5 18.0523 15.5 17.5C15.5 16.9477 15.9477 16.5 16.5 16.5C17.0523 16.5 17.5 16.9477 17.5 17.5Z" fill="black"/>
<path d="M8.5 13.5C8.5 14.0523 8.05228 14.5 7.5 14.5C6.94772 14.5 6.5 14.0523 6.5 13.5C6.5 12.9477 6.94772 12.5 7.5 12.5C8.05228 12.5 8.5 12.9477 8.5 13.5Z" fill="black"/>
<path d="M13 13.5C13 14.0523 12.5523 14.5 12 14.5C11.4477 14.5 11 14.0523 11 13.5C11 12.9477 11.4477 12.5 12 12.5C12.5523 12.5 13 12.9477 13 13.5Z" fill="black"/>
<path d="M17.5 13.5C17.5 14.0523 17.0523 14.5 16.5 14.5C15.9477 14.5 15.5 14.0523 15.5 13.5C15.5 12.9477 15.9477 12.5 16.5 12.5C17.0523 12.5 17.5 12.9477 17.5 13.5Z" fill="black"/>
<path d="M17.5 13.5C17.5 14.0523 17.0523 14.5 16.5 14.5C15.9477 14.5 15.5 14.0523 15.5 13.5C15.5 12.9477 15.9477 12.5 16.5 12.5C17.0523 12.5 17.5 12.9477 17.5 13.5Z" fill="black"/>
</g>
<defs>
<clipPath id="clip0_81_4678">
<rect width="24" height="24" fill="white"/>
</clipPath>
</defs>
</svg>
