<svg width="240" height="88" viewBox="0 0 240 88" fill="none" xmlns="http://www.w3.org/2000/svg">
<g clip-path="url(#clip0_81_4141)">
<path d="M58.3662 86.4785C58.8758 86.7887 59.6153 87.0489 60.3947 87.0489C61.5538 87.0489 62.2233 86.4385 62.2233 85.5479C62.2233 84.7273 61.7537 84.257 60.5746 83.8067C59.1456 83.2963 58.2663 82.5558 58.2663 81.325C58.2663 79.9641 59.3954 78.9434 61.0942 78.9434C61.9935 78.9434 62.643 79.1535 63.0327 79.3737L62.7229 80.2943C62.4332 80.1342 61.8536 79.874 61.0642 79.874C59.8651 79.874 59.4154 80.5845 59.4154 81.1849C59.4154 82.0054 59.945 82.4057 61.1541 82.876C62.633 83.4464 63.3924 84.1669 63.3924 85.4478C63.3924 86.7987 62.3932 87.9695 60.3247 87.9695C59.4754 87.9695 58.5561 87.7193 58.0864 87.4091L58.3762 86.4585L58.3662 86.4785Z" fill="#DBDBDB"/>
<path d="M73.5848 83.3764C73.5848 86.3984 71.7562 87.9995 69.5179 87.9995C67.2795 87.9995 65.5808 86.2083 65.5808 83.5465C65.5808 80.7646 67.3095 78.9434 69.6478 78.9434C71.986 78.9434 73.5848 80.7746 73.5848 83.3764ZM66.7899 83.5265C66.7899 85.3978 67.7991 87.0789 69.5778 87.0789C71.3565 87.0789 72.3857 85.4278 72.3857 83.4364C72.3857 81.6952 71.4764 79.874 69.5978 79.874C67.7192 79.874 66.7899 81.6052 66.7899 83.5265Z" fill="#DBDBDB"/>
<path d="M76.2229 79.084H80.9394V80.0346H77.3521V82.9466H80.6596V83.8873H77.3521V87.86H76.2229V79.094V79.084Z" fill="#DBDBDB"/>
<path d="M85.376 80.0544H82.708V79.0938H89.1931V80.0544H86.5152V87.8597H85.376V80.0544Z" fill="#DBDBDB"/>
<path d="M100.744 87.8594C100.495 87.6093 100.265 87.3691 99.925 86.9989C99.1756 87.6993 98.3262 87.9995 97.3669 87.9995C95.6682 87.9995 94.679 86.8588 94.679 85.5379C94.679 84.337 95.3984 83.5165 96.3977 82.9761V82.9361C95.938 82.3657 95.6682 81.7253 95.6682 81.1048C95.6682 80.0341 96.4376 78.9434 97.8865 78.9434C98.9757 78.9434 99.8251 79.6739 99.8251 80.8046C99.8251 81.7253 99.2955 82.4558 97.9065 83.1462V83.1862C98.646 84.0468 99.4754 85.0075 100.035 85.6279C100.435 85.0175 100.714 84.1669 100.884 83.0662H101.924C101.694 84.4471 101.314 85.5379 100.664 86.3084C101.134 86.7987 101.584 87.2991 102.103 87.8594H100.754H100.744ZM99.3654 86.3484C98.8458 85.778 97.8666 84.7073 96.8973 83.5865C96.4276 83.8867 95.7681 84.4471 95.7681 85.3677C95.7681 86.3684 96.5076 87.1389 97.5568 87.1389C98.3062 87.1389 98.9458 86.7987 99.3654 86.3484ZM96.7074 81.0048C96.7074 81.6252 96.9972 82.1055 97.3669 82.5758C98.2463 82.0655 98.8258 81.5952 98.8258 80.8547C98.8258 80.3243 98.5261 79.7239 97.8166 79.7239C97.1071 79.7239 96.7174 80.3243 96.7174 80.9948L96.7074 81.0048Z" fill="#DBDBDB"/>
<path d="M108.059 86.4785C108.568 86.7887 109.308 87.0489 110.087 87.0489C111.246 87.0489 111.916 86.4385 111.916 85.5479C111.916 84.7273 111.446 84.257 110.267 83.8067C108.838 83.2963 107.959 82.5558 107.959 81.325C107.959 79.9641 109.088 78.9434 110.787 78.9434C111.686 78.9434 112.336 79.1535 112.725 79.3737L112.416 80.2943C112.126 80.1342 111.546 79.874 110.757 79.874C109.558 79.874 109.108 80.5845 109.108 81.1849C109.108 82.0054 109.638 82.4057 110.847 82.876C112.326 83.4464 113.085 84.1669 113.085 85.4478C113.085 86.7987 112.086 87.9695 110.017 87.9695C109.168 87.9695 108.249 87.7193 107.779 87.4091L108.069 86.4585L108.059 86.4785Z" fill="#DBDBDB"/>
<path d="M123.268 83.3764C123.268 86.3984 121.439 87.9995 119.201 87.9995C116.962 87.9995 115.264 86.2083 115.264 83.5465C115.264 80.7646 116.992 78.9434 119.331 78.9434C121.669 78.9434 123.268 80.7746 123.268 83.3764ZM116.473 83.5265C116.473 85.3978 117.482 87.0789 119.261 87.0789C121.039 87.0789 122.069 85.4278 122.069 83.4364C122.069 81.6952 121.159 79.874 119.281 79.874C117.402 79.874 116.473 81.6052 116.473 83.5265Z" fill="#DBDBDB"/>
<path d="M125.906 79.084H127.035V86.8993H130.772V87.85H125.896V79.084H125.906Z" fill="#DBDBDB"/>
<path d="M133.87 79.084V84.2775C133.87 86.2389 134.739 87.0694 135.908 87.0694C137.207 87.0694 138.036 86.2088 138.036 84.2775V79.084H139.176V84.1975C139.176 86.8893 137.757 88.0001 135.868 88.0001C134.079 88.0001 132.72 86.9694 132.72 84.2575V79.094H133.86L133.87 79.084Z" fill="#DBDBDB"/>
<path d="M143.972 80.0544H141.304V79.0938H147.789V80.0544H145.111V87.8597H143.972V80.0544Z" fill="#DBDBDB"/>
<path d="M151.067 79.084V87.85H149.938V79.084H151.067Z" fill="#DBDBDB"/>
<path d="M161.689 83.3764C161.689 86.3984 159.86 87.9995 157.622 87.9995C155.384 87.9995 153.685 86.2083 153.685 83.5465C153.685 80.7646 155.414 78.9434 157.752 78.9434C160.09 78.9434 161.689 80.7746 161.689 83.3764ZM154.904 83.5265C154.904 85.3978 155.913 87.0789 157.692 87.0789C159.47 87.0789 160.5 85.4278 160.5 83.4364C160.5 81.6952 159.59 79.874 157.712 79.874C155.833 79.874 154.904 81.6052 154.904 83.5265Z" fill="#DBDBDB"/>
<path d="M164.327 87.8597V79.0938H165.556L168.364 83.5268C169.013 84.5575 169.523 85.4781 169.932 86.3787H169.962C169.863 85.1979 169.833 84.1272 169.833 82.7663V79.0938H170.902V87.8597H169.763L166.985 83.4067C166.375 82.426 165.786 81.4253 165.346 80.4847H165.306C165.376 81.6055 165.396 82.6562 165.396 84.1172V87.8597H164.327Z" fill="#DBDBDB"/>
<path d="M65.5708 0.19013C64.7614 0.0400273 63.932 0 63.1027 0L15.0987 0.120082L0 59.7607H47.0247C49.6727 59.7607 52.3108 59.2704 54.729 58.1897C58.686 56.4085 63.6023 52.6859 65.0312 45.0007L72.2858 16.071C72.2858 16.071 76.3228 2.18149 65.5708 0.19013ZM50.3223 13.7594L42.2583 46.0714C42.1884 47.0421 41.7587 47.7726 41.2491 48.3029C40.4497 49.1435 39.2905 49.5538 38.1314 49.5438L25.6508 49.4537L35.5933 9.72663L48.2538 9.81669C51.7212 10.0969 50.3123 13.7594 50.3123 13.7594H50.3223Z" fill="url(#paint0_linear_81_4141)"/>
<path d="M112.905 23.1663C111.906 21.6552 110.587 20.7046 109.378 20.1042C107.979 19.4137 106.41 19.1235 104.851 19.1135L76.8924 19.0234L74.4543 28.4198L90.5622 28.3998C91.4615 28.3998 92.3109 28.9802 92.4907 29.8608C92.6306 30.5113 92.5807 31.2718 92.4808 31.9322C92.3309 32.8929 91.4915 33.5934 90.5222 33.5934L73.435 33.6834L69.498 49.0839C67.2497 58.4803 56.4578 64.2042 56.4578 64.2042L77.3721 63.9541C80.3898 63.914 83.3076 62.6532 85.2861 60.3716C85.456 60.1715 85.7358 59.8713 85.8557 59.7112C85.9756 59.5511 86.1455 59.5811 86.1155 59.7812L84.4668 64.1042L106.44 64.0141L113.475 34.9943C114.115 31.9322 114.244 29.3905 114.224 27.7794C114.204 26.1683 113.805 24.5272 112.905 23.1663ZM86.9449 52.2561C86.9449 52.2561 86.6151 53.8772 85.0263 54.8078C84.4068 55.1681 83.6873 55.3082 82.9679 55.3082H75.1937C74.4643 55.3082 73.7448 55.078 73.2152 54.5977C72.6356 54.0673 72.3558 53.3969 72.4058 51.7658C72.4058 51.7658 72.086 48.2334 75.6434 44.0905C76.5927 42.9798 77.8117 42.3694 79.3006 42.3493L89.453 42.1192C89.453 42.1192 89.0533 45.8117 86.9449 52.2561Z" fill="url(#paint1_linear_81_4141)"/>
<path d="M173.73 21.3243C172.68 20.904 171.541 20.7539 170.412 20.7539H130.592C128.584 20.7539 126.595 21.2743 124.876 22.325C122.628 23.6959 119.9 26.2076 118.171 30.7507L112.266 55.6877C112.266 55.6877 111.237 60.8612 115.453 63.493C116.662 64.2436 118.081 64.5638 119.5 64.5638H159.73C161.079 64.5638 162.418 64.3636 163.687 63.9133C166.675 62.8726 171.381 60.3209 172.051 54.4169L177.677 30.7507C177.677 30.7507 179.645 23.6959 173.73 21.3243ZM155.733 34.2331L151.416 52.7357C151.127 54.8572 149.798 55.9379 148.848 56.4582C148.329 56.7384 147.749 56.8685 147.16 56.8485L136.598 56.5883C133.969 56.3081 135.378 52.0352 135.378 52.0352L140.255 33.3025C140.505 32.1717 141.064 31.4012 141.674 30.8808C142.513 30.1603 143.612 29.8301 144.711 29.8301H154.514C157.282 29.9702 155.733 34.2431 155.733 34.2431V34.2331Z" fill="url(#paint2_linear_81_4141)"/>
<path d="M184.062 19.9531L173.51 64.1833H195.313L204.167 31.501C204.507 30.2501 205.626 29.3695 206.925 29.3395L215.708 29.1494C217.547 29.1094 218.896 30.8606 218.386 32.6318L210.792 64.3334H232.456L239.49 36.0141C239.49 36.0141 242.548 23.9158 233.765 20.9038C232.935 20.6236 232.056 20.5135 231.177 20.5035L212.79 20.2733C210.592 20.2433 208.464 21.0239 206.785 22.4448L203.887 24.9265L204.896 20.8938C204.956 20.7036 204.816 20.5135 204.616 20.5035L184.052 19.9531H184.062Z" fill="url(#paint3_linear_81_4141)"/>
</g>
<defs>
<linearGradient id="paint0_linear_81_4141" x1="0" y1="29.8804" x2="73.0252" y2="29.8804" gradientUnits="userSpaceOnUse">
<stop stop-color="#5E9B36"/>
<stop offset="1" stop-color="#84B73F"/>
</linearGradient>
<linearGradient id="paint1_linear_81_4141" x1="56.4478" y1="41.6088" x2="114.224" y2="41.6088" gradientUnits="userSpaceOnUse">
<stop stop-color="#B4B4B4"/>
<stop offset="1" stop-color="white"/>
</linearGradient>
<linearGradient id="paint2_linear_81_4141" x1="112.156" y1="42.6588" x2="177.996" y2="42.6588" gradientUnits="userSpaceOnUse">
<stop stop-color="#CFCFD0"/>
<stop offset="1" stop-color="white"/>
</linearGradient>
<linearGradient id="paint3_linear_81_4141" x1="173.51" y1="42.1383" x2="240" y2="42.1383" gradientUnits="userSpaceOnUse">
<stop stop-color="#CDCBCB"/>
<stop offset="1" stop-color="white"/>
</linearGradient>
<clipPath id="clip0_81_4141">
<rect width="240" height="88" fill="white"/>
</clipPath>
</defs>
</svg>
