<svg width="160" height="160" viewBox="0 0 160 160" fill="none" xmlns="http://www.w3.org/2000/svg">
<circle cx="80" cy="80" r="80" fill="#84B73F"/>
<path d="M96.1581 36.1718C95.4155 36.0362 94.6546 36 93.8937 36L49.8523 36.1085L36 90H79.1429C81.5724 90 83.9926 89.5569 86.2112 88.5804C89.8416 86.9709 94.3521 83.6072 95.663 76.6628L102.319 50.5218C102.319 50.5218 106.022 37.9712 96.1581 36.1718ZM82.1683 48.433L74.77 77.6303C74.7058 78.5074 74.3116 79.1674 73.844 79.6467C73.1106 80.4062 72.0472 80.777 70.9837 80.7679L59.5333 80.6865L68.6552 44.789L80.2706 44.8704C83.4517 45.1236 82.1591 48.433 82.1591 48.433H82.1683Z" fill="url(#paint0_linear_81_4219)" fill-opacity="0.5"/>
<path d="M96.1581 36.1718C95.4155 36.0362 94.6546 36 93.8937 36L49.8523 36.1085L36 90H79.1429C81.5724 90 83.9926 89.5569 86.2112 88.5804C89.8416 86.9709 94.3521 83.6072 95.663 76.6628L102.319 50.5218C102.319 50.5218 106.022 37.9712 96.1581 36.1718ZM82.1683 48.433L74.77 77.6303C74.7058 78.5074 74.3116 79.1674 73.844 79.6467C73.1106 80.4062 72.0472 80.777 70.9837 80.7679L59.5333 80.6865L68.6552 44.789L80.2706 44.8704C83.4517 45.1236 82.1591 48.433 82.1591 48.433H82.1683Z" fill="white" fill-opacity="0.5"/>
<path fill-rule="evenodd" clip-rule="evenodd" d="M115.46 58C116.174 58 116.887 58.0344 117.584 58.1635C126.834 59.8755 123.361 71.8166 123.361 71.8166L117.12 96.6883C115.89 103.296 111.66 106.496 108.256 108.027C106.175 108.956 103.906 109.378 101.628 109.378H80.6787L76.5883 124H57L61.929 106.38L74.1598 58.1032L115.46 58ZM97.5267 97.6088L104.465 69.8293H104.456C104.456 69.8293 105.668 66.6806 102.685 66.4397L91.7925 66.3622L83.2384 100.517L93.9761 100.594C94.9734 100.603 95.9707 100.25 96.6584 99.5273C97.0969 99.0714 97.4666 98.4433 97.5267 97.6088Z" fill="white"/>
<defs>
<linearGradient id="paint0_linear_81_4219" x1="31.6647" y1="69.9928" x2="90.7051" y2="57.0154" gradientUnits="userSpaceOnUse">
<stop stop-color="#5E9B36"/>
<stop offset="1" stop-color="#82B63F"/>
</linearGradient>
</defs>
</svg>
